<svg xmlns="http://www.w3.org/2000/svg" viewBox="0 0 18 22"><defs><style>.cls-1{fill:#484848;}</style></defs><title>Page-1</title><g id="图层_2" data-name="图层 2"><g id="图层_1-2" data-name="图层 1"><path id="Fill-1" class="cls-1" d="M2,22a2,2,0,0,1-2-2V9A2,2,0,0,1,2,7H5A1,1,0,0,1,5,9H2V20H16V9H13a1,1,0,0,1,0-2h3a2,2,0,0,1,2,2V20a2,2,0,0,1-2,2Z"/><path id="Fill-3" class="cls-1" d="M9,15a1,1,0,0,1-1-.94V.94a1,1,0,0,1,2,0V14.06A1,1,0,0,1,9,15"/><path id="Fill-5" class="cls-1" d="M12,5a1,1,0,0,1-.71-.29L9,2.41,6.71,4.71A1,1,0,0,1,5.29,3.29l3-3a1,1,0,0,1,1.42,0l3,3a1,1,0,0,1,0,1.42A1,1,0,0,1,12,5"/></g></g></svg>