<svg xmlns="http://www.w3.org/2000/svg" viewBox="0 0 23.39 20.55"><defs><style>.cls-1{fill:#00b5e2;}</style></defs><title>资源 1</title><g id="图层_2" data-name="图层 2"><g id="图层_1-2" data-name="图层 1"><g id="WeChat"><g id="Shape"><path class="cls-1" d="M16.25,6.76a8.22,8.22,0,0,0-5.59,2.3,6.84,6.84,0,0,0-2.06,5.73c-.85-.11-1.62-.22-2.4-.29a1.47,1.47,0,0,0-.81.14c-.75.43-1.48.92-2.34,1.47.16-.73.26-1.36.44-2a.76.76,0,0,0-.33-1A6.8,6.8,0,0,1,.27,5.58,7.42,7.42,0,0,1,5.43.44,8.56,8.56,0,0,1,14.9,3.27a6.68,6.68,0,0,1,1.35,3.49Zm-10-1a1.16,1.16,0,0,0-1.1-1.17,1.13,1.13,0,0,0-.07,2.25A1.14,1.14,0,0,0,6.26,5.72Zm5-1.38A1.26,1.26,0,0,0,10,5.6a1.23,1.23,0,0,0,1.25,1.22,1.24,1.24,0,0,0,0-2.47Z"/><path class="cls-1" d="M21.12,20.55a7.3,7.3,0,0,0-2-.85,10.94,10.94,0,0,0-2.07.39,6.84,6.84,0,0,1-5.61-1.87,5.86,5.86,0,0,1,.9-9.46,7.45,7.45,0,0,1,9.76,1.48,5.73,5.73,0,0,1-.64,7.88c-.67.61-.91,1.1-.48,1.9a2.3,2.3,0,0,1,.13.52Zm-7.66-7.38a1,1,0,0,0,0-2,1,1,0,0,0-1,1,1,1,0,0,0,1,1Zm5-2a1,1,0,0,0-1,.94,1,1,0,0,0,.95,1,1,1,0,0,0,1-.94,1,1,0,0,0-.95-1Z"/></g></g></g></g></svg>
