<svg xmlns="http://www.w3.org/2000/svg" viewBox="0 0 70.75 63"><defs><style>.cls-1{fill:none;stroke:#484848;stroke-miterlimit:10;stroke-width:3px;}</style></defs><title>资源 3</title><g id="图层_2" data-name="图层 2"><g id="图层_1-2" data-name="图层 1"><path class="cls-1" d="M6.13,61.41l58.3.09a4.64,4.64,0,0,0,4.65-4.62l.17-40.41a4.64,4.64,0,0,0-4.64-4.66H57.38a4.66,4.66,0,0,1-3.13-1.22L45.74,2.8a4.65,4.65,0,0,0-3.1-1.22L29.12,1.5a4.62,4.62,0,0,0-2.94,1L16.09,10.69a4.69,4.69,0,0,1-2.88,1l-6.77,0a4.64,4.64,0,0,0-4.6,4.6L1.5,56.73A4.64,4.64,0,0,0,6.13,61.41Z"/><circle class="cls-1" cx="35.73" cy="36.24" r="13.11"/></g></g></svg>