<svg xmlns="http://www.w3.org/2000/svg" viewBox="0 0 60.11 60.14"><defs><style>.cls-1,.cls-2{fill:none;stroke:#231815;stroke-width:3px;}.cls-1{stroke-linecap:round;stroke-linejoin:round;}.cls-2{stroke-miterlimit:10;}</style></defs><title>资源 6</title><g id="图层_2" data-name="图层 2"><g id="图层_1-2" data-name="图层 1"><path class="cls-1" d="M15.61,38.43s12.71,17.85,29,0"/><path d="M30,0A30.17,30.17,0,0,0,0,30,30.17,30.17,0,0,0,30,60,30.17,30.17,0,0,0,60,30,30.17,30.17,0,0,0,30,0Zm0,57.12A27.12,27.12,0,1,1,57.12,30,27.09,27.09,0,0,1,30,57.12Z"/><path d="M17.31,28.56a2,2,0,0,0,2-2V24.23a2,2,0,0,0-2-2c-1.16,0-2.31.58-2.31,1.73v2.31a2.28,2.28,0,0,0,2.31,2.31Z"/><path d="M42.4,28.56a2,2,0,0,0,2-2V24.23a2,2,0,0,0-4,0v2.31a2.18,2.18,0,0,0,2,2Z"/><circle class="cls-2" cx="30.11" cy="30.14" r="28.5"/></g></g></svg>