<svg xmlns="http://www.w3.org/2000/svg" viewBox="0 0 155.87 169.02"><defs><style>.cls-1{fill:#f4d9c0;}.cls-2{fill:#c3b781;}.cls-14,.cls-3,.cls-9{fill:#231815;}.cls-10,.cls-12,.cls-14,.cls-15,.cls-3,.cls-4,.cls-5,.cls-6,.cls-7,.cls-8{stroke:#231815;}.cls-10,.cls-11,.cls-3,.cls-4,.cls-6,.cls-8{stroke-linecap:round;stroke-linejoin:round;}.cls-12,.cls-3,.cls-4,.cls-5,.cls-6{stroke-width:4px;}.cls-11,.cls-12,.cls-15,.cls-4,.cls-7{fill:none;}.cls-5{fill:#fff;}.cls-12,.cls-13,.cls-14,.cls-15,.cls-5,.cls-7{stroke-miterlimit:10;}.cls-10,.cls-6,.cls-8{fill:#692d17;}.cls-11,.cls-7,.cls-8{stroke-width:3px;}.cls-10,.cls-13{stroke-width:2px;}.cls-11,.cls-13{stroke:#231c1d;}.cls-13{fill:#231c1d;}.cls-14,.cls-15{stroke-width:6px;}</style></defs><title>资源 1</title><g id="图层_2" data-name="图层 2"><g id="图层_1-2" data-name="图层 1"><path class="cls-1" d="M137.35,93.37c-.15.87-.39,1.88-1.19,2.25-1,.45-2.23-.27-3.11.32a2.29,2.29,0,0,0-.69,2.07c.25,6.15,4.31,11.8,3.87,17.93a25,25,0,0,1-2,7.12L129,136.68a93.14,93.14,0,0,0,11.83,4.7c3.59-8.26,0-18.38,3.87-26.51,1.54-3.24,4.13-5.85,6-8.89s3.1-7,1.5-10.18c-.61-1.24-1.59-2.26-2.2-3.5-1.43-2.91-.6-6.36.11-9.52a11.48,11.48,0,0,0,.34-4.86,4.22,4.22,0,0,0-3.12-3.41,2.88,2.88,0,0,0-3.2,2.64C138.59,73.45,137.8,90.67,137.35,93.37Z"/><path class="cls-1" d="M45.26,85.37c1.05,2.6,2.62,4.16,4.68,6.81,2.25,2.91,4.78,4.21,1,8.21-1.33,1.4-3.28,1.94-5.06,2.67s-3.63,1.9-4.07,3.78c-.57,2.41,1.44,4.62,3.41,6.12,4.16,3.14,9.14,5.41,14.35,5.51a16.85,16.85,0,0,0,14.88-8.38c3.08-5.61-1.63-5.93-5.36-8.29-7.59-4.81.44-6.86,4.08-10.6a24.43,24.43,0,0,0,5.52-10.55C81.28,71.39,81,61.6,80.74,52a6.15,6.15,0,0,0-.64-3.09,5.71,5.71,0,0,0-2.68-2,25.76,25.76,0,0,0-10.78-2.47c-10.56-.09-20.21-3.68-23.26,9-2.19,9.14-.68,18.72.83,28A17.93,17.93,0,0,0,45.26,85.37Z"/><path class="cls-2" d="M40.69,166A298.19,298.19,0,0,1,2,165.9c1-4.88.76-8.53,2.81-13.18a114.42,114.42,0,0,1,7.08-13.53c5-8.13,10.6-17.36,20.22-20.3a1.67,1.67,0,0,1,1.06-.07C41.6,122,36.59,166.25,40.69,166Z"/><path class="cls-2" d="M78,163.71a3.35,3.35,0,0,0,.68,2.06,3.29,3.29,0,0,0,1.7.77c11.53,2.67,23.5,2.56,35.33,2.44,7-.07,14.6-.38,19.86-5,4.4-3.83,6.14-9.8,7.67-15.43a2.26,2.26,0,0,0-1.58-3.3l-15.79-7.21a73.1,73.1,0,0,0-15.34,22.16c.46-4.63-1.46-9.14-3.54-13.3-2.59-5.18-21.59-38.76-27.31-33.91-2.44,2.07-1.85,9.07-2.06,11.85q-.48,6.31-.6,12.64A228.16,228.16,0,0,0,78,163.71Z"/><path class="cls-3" d="M25.72,115.32s2.5,26.95,4.57,49.76"/><path class="cls-3" d="M91.09,115.32S88.7,141,86.58,164.54"/><path class="cls-4" d="M52.5,101.13c-13,2.63-24.08,10.35-33.28,20.76"/><path class="cls-4" d="M77.83,104.78a38.64,38.64,0,0,0-13-3.86"/><line class="cls-5" x1="65.11" y1="100.96" x2="65.11" y2="96.21"/><line class="cls-5" x1="52.31" y1="96.27" x2="52.31" y2="101.15"/><path class="cls-4" d="M15.45,131.7"/><polyline class="cls-4" points="40.32 105.41 40.32 105.41 38.69 165.08"/><path class="cls-4" d="M79.24,165.08l-1.66-60.42h0c10.74,5.36,21.29,16.19,30,37.68l4.73,12.86"/><path class="cls-4" d="M143.5,118.91c8-6.8,9.18-16.08,10.12-19.54,1.2-4.44-2.05-6.86-3.63-3.68,0,0-1.57,3.63-2.33,5.81-.89,2.56,2.09,4.36,4.32-.59"/><path class="cls-4" d="M148.26,99.54l-1.17,2.58c-1,2.21-3.82,2.39-3.45-.36a46,46,0,0,1,2.45-8c.81-2.44,4.53-1.84,3.89,1.93"/><path class="cls-4" d="M147.26,92.24s2.25-12.47,3.05-16.06c.48-2.46-2.65-3.37-3.38-.51-1.19,4.61-4.07,15.05-4.07,15.05"/><path class="cls-4" d="M138.39,94.06s1.41-15.12,1.71-18.14,3.19-2.65,3.1-.32l-.47,16.94"/><path class="cls-4" d="M135.23,98a47.51,47.51,0,0,0,4.36,2.62c1.71.7,3.24-.14,2.74-2.23S137.44,94,137.44,94s-11.49-1.79-2.87,24.23"/><path class="cls-4" d="M138,100.21l.48,2.64s4.51,2.75,3.5,9.25"/><ellipse class="cls-6" cx="58.58" cy="19.16" rx="8.23" ry="17.16"/><ellipse class="cls-5" cx="58.58" cy="31.71" rx="11.37" ry="6.37"/><path class="cls-7" d="M58.6,30.14c13,0,23.49,11.73,22.66,33.89-1,26.74-14.53,33.89-22.66,33.89h0c-8.13,0-21.66-7.15-22.66-33.89-.83-22.16,9.68-33.89,22.66-33.89Z"/><path class="cls-8" d="M44.27,38.41c-3.64,6.23-3.59,14.8-3.59,14.8,4.59-2,11.3-3.2,18.77-3.2a57.55,57.55,0,0,1,16.69,2.41c-.06-1.93-.31-8.69-3.42-14,0,0,4.61,6,6.83,17.19l1.42,0C79.17,38.9,69.81,30.14,58.6,30.14h0c-11.44,0-21,9.13-22.49,26.48l1.35-1C39.66,44.38,44.27,38.41,44.27,38.41Z"/><path class="cls-9" d="M59.92,66.3l.68,9.08a2,2,0,0,1-4,.3,2.17,2.17,0,0,1,0-.32l.77-9.07a1.28,1.28,0,0,1,2.55,0Z"/><path class="cls-10" d="M36.74,53.21s-2.71,7.66.18,37.56c.1,1.08,1.15,4,1,1.25,0,0-1.88-25.3-.43-36.42C38.59,46.73,36.74,53.21,36.74,53.21Z"/><path class="cls-10" d="M80.45,52s2.65,12-.17,38.79c-.11,1.08-1.15,4-1,1.25,0,0,1.92-28-.09-37.93C77.46,45.33,80.45,52,80.45,52Z"/><path class="cls-11" d="M52.39,80.73a7.59,7.59,0,0,0,12.72,0"/><circle class="cls-12" cx="47.22" cy="62.55" r="8.89"/><path class="cls-12" d="M56.11,61.53a3.8,3.8,0,0,1,2.4-.92,3.91,3.91,0,0,1,2.65,1.13"/><circle class="cls-12" cx="69.97" cy="62.55" r="8.89"/><circle class="cls-13" cx="51.84" cy="59.61" r="0.8"/><circle class="cls-9" cx="41.55" cy="72.23" r="0.8"/><circle class="cls-9" cx="43.35" cy="74.77" r="0.8"/><circle class="cls-9" cx="46.76" cy="73.97" r="0.8"/><circle class="cls-9" cx="45.73" cy="76.01" r="0.8"/><circle class="cls-9" cx="51.21" cy="72.85" r="0.8" transform="translate(-29.56 35.36) rotate(-30)"/><circle class="cls-9" cx="49.59" cy="75.56" r="0.8" transform="translate(-31.14 34.92) rotate(-30)"/><circle class="cls-9" cx="66.32" cy="73.17" r="0.8"/><circle class="cls-9" cx="73.27" cy="76.01" r="0.8"/><circle class="cls-9" cx="71.13" cy="73.72" r="0.8"/><circle class="cls-9" cx="74.8" cy="73.3" r="0.8" transform="translate(-26.63 47.22) rotate(-30)"/><circle class="cls-9" cx="68.33" cy="75.56" r="0.8" transform="translate(-28.63 44.29) rotate(-30)"/><circle class="cls-13" cx="73.01" cy="59.61" r="0.8"/><path class="cls-12" d="M15.45,131.7"/><path class="cls-4" d="M75.63,103.76a17.15,17.15,0,0,1-33.5.95"/><path class="cls-4" d="M20.32,120.63c-4.57,5.12-9.82,14.52-11.74,19.45,0,0-5.82,19.5-6.58,25.3"/><line class="cls-14" x1="39.75" y1="126.39" x2="78.17" y2="126.39"/><line class="cls-14" x1="39.75" y1="137.32" x2="78.17" y2="137.32"/><line class="cls-14" x1="39.75" y1="148.24" x2="78.17" y2="148.24"/><line class="cls-15" x1="40.01" y1="159.63" x2="77.8" y2="159.63"/><line class="cls-4" x1="134.68" y1="118.27" x2="126.79" y2="136.59"/><line class="cls-4" x1="139.53" y1="141.54" x2="145.76" y2="117.22"/><polyline class="cls-4" points="136.54 165.08 145.76 145.97 122.89 135.24 108.84 161.8"/></g></g></svg>