<svg xmlns="http://www.w3.org/2000/svg" viewBox="0 0 369.75 950.52"><defs><style>.cls-1,.cls-11,.cls-13,.cls-2,.cls-4,.cls-5,.cls-6,.cls-7{isolation:isolate;}.cls-2,.cls-3{font-size:14px;font-family:ArialMT, Arial;letter-spacing:-0.02em;}.cls-11,.cls-12,.cls-4,.cls-7{font-size:18px;}.cls-11,.cls-12,.cls-13,.cls-4,.cls-5,.cls-7{fill:#484848;}.cls-4{font-family:PingFangSC-Semibold, PingFangSC Semibold-B5pc-H;}.cls-11,.cls-12,.cls-4,.cls-6{font-weight:700;}.cls-5,.cls-6{font-size:16px;}.cls-5,.cls-7{font-family:PingFang-SC-Medium, PingFang SC-Medium;}.cls-6{fill:#00b3e5;}.cls-11,.cls-12,.cls-6{font-family:PingFang-SC-Bold, PingFang SC-Bold;}.cls-8,.cls-9{fill:none;}.cls-10,.cls-9{stroke:#484848;stroke-width:2px;}.cls-10{fill:#fff;stroke-linecap:round;stroke-linejoin:round;}.cls-13{font-size:12px;font-family:HelveticaNeue-Medium, HelveticaNeue Medium;}.cls-14{letter-spacing:-0.01em;}.cls-15{letter-spacing:0em;}</style></defs><title>资源 3</title><g id="图层_2" data-name="图层 2"><g id="图层_1-2" data-name="图层 1"><g id="iPhone-X_Status-Bars_Status-Bar-_Black_" data-name="iPhone-X/Status-Bars/Status-Bar-(Black)"><g id="iPhone-X_Overrides_Time-Black" data-name="iPhone-X/Overrides/Time-Black"><g id="_-Time" data-name="↳-Time" class="cls-1"><text class="cls-2" transform="translate(18.41 12.01)">9:4</text><text class="cls-3" transform="translate(37.04 12.01)"> </text><text class="cls-2" transform="translate(39.21 12.01)">1</text></g></g></g><g id="Title" class="cls-1"><text class="cls-4" transform="translate(154.5 54.51)">空间</text></g><g id="简介" class="cls-1"><text class="cls-5" transform="translate(29.5 95.51)">简介</text></g><g id="" class="cls-1"><text class="cls-6" transform="translate(149 96.51)">会议室</text></g><g id="活动场地" class="cls-1"><text class="cls-5" transform="translate(266 95.51)">活动场地</text></g><g id="Filters" class="cls-1"><text class="cls-7" transform="translate(40 147.51)">3月24日</text></g><g id="Wallet"><rect id="Rectangle-2" class="cls-8" y="128.51" width="24" height="24"/><g id="switches"><path id="Rectangle-3" class="cls-9" d="M4.5,136.51h15a.5.5,0,0,1,.5.5h0a.5.5,0,0,1-.5.5H4.5A.5.5,0,0,1,4,137H4A.5.5,0,0,1,4.5,136.51Z"/><circle id="Oval" class="cls-10" cx="18" cy="136.51" r="3"/><path id="Rectangle-3-Copy" class="cls-9" d="M6.5,145.51h13a.5.5,0,0,1,.5.5h0a.5.5,0,0,1-.5.5H6.5A.5.5,0,0,1,6,146H6A.5.5,0,0,1,6.5,145.51Z"/><circle id="Oval-Copy" class="cls-10" cx="7" cy="145.51" r="3"/></g></g><g id="房型_会议室1" data-name="房型：会议室1" class="cls-1"><text class="cls-11" transform="translate(4 403.51)">房型：会议室</text><text class="cls-12" transform="translate(118 403.51)"> </text><text class="cls-11" transform="translate(118 403.51)">1</text></g><g id="_1" data-name="1"><g id="_2-PM" data-name="2-PM" class="cls-1"><text class="cls-13" transform="translate(29.16 518.52)">2 <tspan class="cls-14" x="8.7" y="0">P</tspan><tspan class="cls-15" x="14.94" y="0">M</tspan></text></g></g><g id="_2" data-name="2"><g id="_3-PM" data-name="3-PM" class="cls-1"><text class="cls-13" transform="translate(108.16 518.52)">3 <tspan class="cls-14" x="8.7" y="0">P</tspan><tspan class="cls-15" x="14.94" y="0">M</tspan></text></g></g><g id="_3" data-name="3"><g id="_4-PM" data-name="4-PM" class="cls-1"><text class="cls-13" transform="translate(187.16 518.52)">4 <tspan class="cls-14" x="8.7" y="0">P</tspan><tspan class="cls-15" x="14.94" y="0">M</tspan></text></g></g><g id="_4" data-name="4"><g id="_5-PM" data-name="5-PM" class="cls-1"><text class="cls-13" transform="translate(266.16 518.52)">5 <tspan class="cls-14" x="8.7" y="0">P</tspan><tspan class="cls-15" x="14.94" y="0">M</tspan></text></g></g><g id="_5" data-name="5"><g id="_6-PM" data-name="6-PM" class="cls-1"><text class="cls-13" transform="translate(345.16 518.52)">6 <tspan class="cls-14" x="8.7" y="0">P</tspan><tspan class="cls-15" x="14.94" y="0">M</tspan></text></g></g><g id="_1-2" data-name="1"><g id="_2-PM-2" data-name="2-PM" class="cls-1"><text class="cls-13" transform="translate(29.16 947.52)">2 <tspan class="cls-14" x="8.7" y="0">P</tspan><tspan class="cls-15" x="14.94" y="0">M</tspan></text></g></g><g id="_2-2" data-name="2"><g id="_3-PM-2" data-name="3-PM" class="cls-1"><text class="cls-13" transform="translate(108.16 947.52)">3 <tspan class="cls-14" x="8.7" y="0">P</tspan><tspan class="cls-15" x="14.94" y="0">M</tspan></text></g></g><g id="_3-2" data-name="3"><g id="_4-PM-2" data-name="4-PM" class="cls-1"><text class="cls-13" transform="translate(187.16 947.52)">4 <tspan class="cls-14" x="8.7" y="0">P</tspan><tspan class="cls-15" x="14.94" y="0">M</tspan></text></g></g><g id="_4-2" data-name="4"><g id="_5-PM-2" data-name="5-PM" class="cls-1"><text class="cls-13" transform="translate(266.16 947.52)">5 <tspan class="cls-14" x="8.7" y="0">P</tspan><tspan class="cls-15" x="14.94" y="0">M</tspan></text></g></g><g id="_5-2" data-name="5"><g id="_6-PM-2" data-name="6-PM" class="cls-1"><text class="cls-13" transform="translate(345.16 947.52)">6 <tspan class="cls-14" x="8.7" y="0">P</tspan><tspan class="cls-15" x="14.94" y="0">M</tspan></text></g></g><g id="房型_会议室1-2" data-name="房型：会议室1" class="cls-1"><text class="cls-11" transform="translate(4 828.85)">房型：会议室</text><text class="cls-12" transform="translate(118 828.85)"> </text><text class="cls-11" transform="translate(118 828.85)">1</text></g></g></g></svg>
