<svg xmlns="http://www.w3.org/2000/svg" viewBox="0 0 31 30"><defs><style>.cls-1,.cls-2{fill:none;stroke-linecap:round;stroke-linejoin:round;}.cls-1{stroke:#777;}.cls-2{stroke:#00b3e5;}</style></defs><title>资源 7</title><g id="图层_2" data-name="图层 2"><g id="图层_1-2" data-name="图层 1"><polyline id="Stroke-1" class="cls-1" points="22.5 29.5 15.51 17.5 8.5 29.5"/><path id="Stroke-3" class="cls-1" d="M5.84,27.5A15.42,15.42,0,0,1,.5,15.79,15.15,15.15,0,0,1,15.5.5a15.15,15.15,0,0,1,15,15.29,15.36,15.36,0,0,1-5.35,11.7"/><path id="Stroke-5" class="cls-1" d="M22,20.48a8.78,8.78,0,0,0,2.49-6.12,9,9,0,0,0-18,0A8.83,8.83,0,0,0,9,20.5"/><path id="Stroke-7" class="cls-2" d="M18.5,14.5a3,3,0,1,1-3-3A3,3,0,0,1,18.5,14.5Z"/></g></g></svg>