<svg xmlns="http://www.w3.org/2000/svg" viewBox="0 0 29 25"><defs><style>.cls-1,.cls-2{fill:none;stroke-linecap:round;stroke-linejoin:round;}.cls-1{stroke:#00b3e5;}.cls-2{stroke:#777;}</style></defs><title>资源 1</title><g id="图层_2" data-name="图层 2"><g id="图层_1-2" data-name="图层 1"><polygon id="Stroke-3" class="cls-1" points="11.5 22.5 16.5 22.5 16.5 20.5 11.5 20.5 11.5 22.5"/><path id="Stroke-5" class="cls-1" d="M17.45,22.5H10.55a4.74,4.74,0,0,0-4,2h15A4.74,4.74,0,0,0,17.45,22.5Z"/><path id="Stroke-1" class="cls-2" d="M27.23,20.5H1.77A1.26,1.26,0,0,1,.5,19.25V1.75A1.26,1.26,0,0,1,1.77.5H27.23A1.26,1.26,0,0,1,28.5,1.75v17.5A1.26,1.26,0,0,1,27.23,20.5Z"/></g></g></svg>