<svg xmlns="http://www.w3.org/2000/svg" viewBox="0 0 29 28"><defs><style>.cls-1,.cls-2{fill:none;stroke-linecap:round;stroke-linejoin:round;}.cls-1{stroke:#777;}.cls-2{stroke:#00b3e5;}</style></defs><title>资源 10</title><g id="图层_2" data-name="图层 2"><g id="图层_1-2" data-name="图层 1"><path id="Stroke-1" class="cls-1" d="M13.5.5v4"/><path id="Stroke-3" class="cls-1" d="M13.5,23.5v4"/><path id="Stroke-5" class="cls-1" d="M26.5,13.5h-3"/><path id="Stroke-7" class="cls-1" d="M4.5,13.5H.5"/><path id="Stroke-10" class="cls-1" d="M23.5,4.5l-2,2"/><path id="Stroke-11" class="cls-1" d="M6.5,20.5l-2,2"/><path id="Stroke-12" class="cls-1" d="M6.5,7.5l-2-2"/><path id="Stroke-19" class="cls-1" d="M19.25,26.44a13.6,13.6,0,0,1-10.51,0,13.56,13.56,0,0,1-7.19-7.19,13.6,13.6,0,0,1,0-10.51A13.56,13.56,0,0,1,8.75,1.56a13.6,13.6,0,0,1,10.51,0,13.56,13.56,0,0,1,7.19,7.19,13.6,13.6,0,0,1,0,10.51,13.78,13.78,0,0,1-2,3.34"/><polyline id="Stroke-21" class="cls-1" points="28.5 23.5 23.5 23.5 23.5 18.5"/><path id="Stroke-13" class="cls-2" d="M14.5,13.5a1,1,0,1,1-.29-.71A1,1,0,0,1,14.5,13.5Z"/><path id="Stroke-15" class="cls-2" d="M12.27,12.76,8.5,9.5"/><path id="Stroke-17" class="cls-2" d="M14.5,12.5l5.21-4.58"/></g></g></svg>