<svg xmlns="http://www.w3.org/2000/svg" viewBox="0 0 24 22.02"><defs><style>.cls-1{fill:none;stroke:#484848;stroke-linecap:round;stroke-linejoin:round;stroke-width:2px;}</style></defs><title>Page-1</title><g id="图层_2" data-name="图层 2"><g id="图层_1-2" data-name="图层 1"><g id="Page-1"><path id="Stroke-1" class="cls-1" d="M7.8,15H9.5c4.69,0,8.5-3.14,8.5-7S14.19,1,9.5,1,1,4.13,1,8a6.63,6.63,0,0,0,3.56,5.55"/><path id="Stroke-3" class="cls-1" d="M4.56,13.55A4.61,4.61,0,0,1,3,17a5.54,5.54,0,0,0,4.8-2"/><path id="Stroke-5" class="cls-1" d="M21,8a5.13,5.13,0,0,1,2,4,6.63,6.63,0,0,1-3.56,5.55"/><path id="Stroke-7" class="cls-1" d="M16.2,19H14.5A10,10,0,0,1,10,18"/><path id="Stroke-9" class="cls-1" d="M19.44,17.55A4.61,4.61,0,0,0,21,21a5.54,5.54,0,0,1-4.8-2"/></g></g></g></svg>