<svg xmlns="http://www.w3.org/2000/svg" viewBox="0 0 19 21.34"><defs><style>.cls-1,.cls-2,.cls-3{fill:none;stroke:#484848;}.cls-1,.cls-2{stroke-width:2px;}.cls-2{stroke-linecap:round;stroke-linejoin:round;}</style></defs><title>Group</title><g id="图层_2" data-name="图层 2"><g id="图层_1-2" data-name="图层 1"><g id="Group"><path id="Rectangle" class="cls-1" d="M2.7,2.41,11.7,1A2,2,0,0,1,14,2.7c0,.1,0,.2,0,.3V18.34a2,2,0,0,1-2,2,1.53,1.53,0,0,1-.3,0l-9-1.38A2,2,0,0,1,1,17V4.38A2,2,0,0,1,2.7,2.41Z"/><path id="Rectangle-Copy" class="cls-2" d="M14.6,3.72A3,3,0,0,1,18,6.3a2.6,2.6,0,0,1,0,.4v8.93"/><circle id="Oval" class="cls-3" cx="10" cy="9.67" r="1"/></g></g></g></svg>