<svg xmlns="http://www.w3.org/2000/svg" viewBox="0 0 751.07 521.57"><defs><style>.cls-1{fill:#ee7964;}.cls-2{fill:#fff;}.cls-3{fill:#55b79d;}</style></defs><title>资源 邮件</title><g id="图层_2" data-name="图层 2"><g id="图层_1-2" data-name="图层 1"><path class="cls-1" d="M86.8,521.57H663.27A86.94,86.94,0,0,0,750,434.89V86.69A86.94,86.94,0,0,0,663.27,0H86.8A86.94,86.94,0,0,0,.11,86.69v348.2c0,49.12,39,86.68,86.69,86.68Z"/><path class="cls-2" d="M374.31,338.08.22,164.26l-.22-15L374.31,322.19,751.07,148.26l-.22,15Z"/><line class="cls-3" x1="212.5" y1="254.28" x2="0.11" y2="390.1"/><path class="cls-2" d="M222.83,262,.3,402.34l-.08-18,215-135.11"/><line class="cls-3" x1="744.18" y1="365.53" x2="569.36" y2="241.28"/><path class="cls-2" d="M573.7,235.5,750.52,360.75l-.67,18.56L565,247.06"/></g></g></svg>