<svg xmlns="http://www.w3.org/2000/svg" viewBox="0 0 984 984"><defs><style>.cls-1{fill:#bcbcbc;}.cls-2{fill:#fff;}</style></defs><title>资源 链接</title><g id="图层_2" data-name="图层 2"><g id="图层_1-2" data-name="图层 1"><rect class="cls-1" width="984" height="984" rx="150.46" ry="150.46"/><path class="cls-2" d="M335.5,527.73a14.15,14.15,0,1,0-20-20l-57.17,57.17a107,107,0,0,0,0,148.63c20,20,45.73,30,74.32,30S387,732.1,407,713.52L531.3,589.19a107,107,0,0,0,0-148.64,14.15,14.15,0,1,0-20,20c30,30,30,78.6,0,107.19L387,692.09C372.66,706.38,354.08,715,332.65,715s-40-8.57-54.31-22.86c-30-30-30-78.61,0-107.19Z"/><path class="cls-2" d="M652.78,240.46c-28.58,0-54.31,11.44-74.31,30L454.13,394.81a107,107,0,0,0,0,148.64,13.8,13.8,0,0,0,20,0,13.81,13.81,0,0,0,0-20c-30-30-30-78.6,0-107.19L598.47,291.91c14.29-14.29,32.88-22.86,52.88-22.86s40,8.57,54.31,22.86c30,30,30,78.61,0,107.19l-57.17,57.17a14.15,14.15,0,0,0,20,20l57.17-57.17c40-41.44,40-107.19,0-147.21-18.58-20-45.73-31.44-72.89-31.44Z"/></g></g></svg>