<svg xmlns="http://www.w3.org/2000/svg" viewBox="0 0 157.36 174.85"><defs><style>.cls-1{fill:#60c433;}</style></defs><title>资源 2</title><g id="图层_2" data-name="图层 2"><g id="图层_1-2" data-name="图层 1"><path class="cls-1" d="M124.13,174.85h0l-.9,0c-21-1.07-49.34-20.83-75.84-52.85L37.6,110.16C11.1,78.13-2.78,46.86.47,26.49,2.76,12.12,24.12,0,36.32,0c6,0,8.19,3,9,4.78,6.91,12.28,15.46,33.63,15.5,41.29v.55l-.2.51c-1.52,4-4.93,6-7.94,7.66-4,2.24-6.21,3.71-6.49,7.94-.08,1.28,1,7.13,18.51,28.68l7.48,9c17.53,20.69,23,22.92,24.34,23.1,4.23.59,6.22-1.27,9.26-4.6,2.31-2.54,4.94-5.42,9.27-6.05l.55-.08.54.11c7.63,1.61,27.18,14.21,38.27,23.55,1.6,1.06,4.4,4.22,2.18,11.19-3.47,10.95-18.61,27.19-32.41,27.19"/></g></g></svg>