<svg xmlns="http://www.w3.org/2000/svg" viewBox="0 0 174.87 154.13"><defs><style>.cls-1{fill:#38c8dd;}</style></defs><title>资源 2</title><g id="图层_2" data-name="图层 2"><g id="图层_1-2" data-name="图层 1"><path class="cls-1" d="M153.76,0H21.12C6.91,0,0,7,0,21v84.07c0,14,6.48,20.64,20.33,20.64H40.67l-2.5,21.4a7,7,0,0,0,10.94,5.83l40.37-27.23h65.07c14.08,0,20.33-6.62,20.33-20.64V21q0-21-21.12-21M46.81,73A10.14,10.14,0,1,1,57,62.9,10.15,10.15,0,0,1,46.81,73m40.6,0A10.14,10.14,0,1,1,97.61,62.9,10.18,10.18,0,0,1,87.41,73Zm40.67,0a10.14,10.14,0,1,1,10.2-10.13A10.16,10.16,0,0,1,128.08,73"/></g></g></svg>