<svg xmlns="http://www.w3.org/2000/svg" viewBox="0 0 32 26.07"><defs><style>.cls-1{fill:#1afa29;}</style></defs><title>资源 微信</title><g id="图层_2" data-name="图层 2"><g id="图层_1-2" data-name="图层 1"><path class="cls-1" d="M21.66,7.89A9.82,9.82,0,0,1,22.75,8C21.77,3.39,16.9,0,11.33,0,5.1,0,0,4.24,0,9.63c0,3.11,1.7,5.67,4.53,7.65L3.4,20.69l4-2a19.4,19.4,0,0,0,4,.57c.35,0,.7,0,1.05,0A8.51,8.51,0,0,1,12,16.85C12,11.9,16.28,7.89,21.66,7.89ZM15.57,4.82A1.33,1.33,0,0,1,17,6.23a1.34,1.34,0,0,1-1.42,1.42,1.6,1.6,0,0,1-1.7-1.42A1.58,1.58,0,0,1,15.57,4.82ZM7.65,7.65A1.6,1.6,0,0,1,5.94,6.23,1.59,1.59,0,0,1,7.65,4.82,1.33,1.33,0,0,1,9.06,6.23,1.34,1.34,0,0,1,7.65,7.65ZM32,16.71c0-4.52-4.53-8.21-9.62-8.21-5.39,0-9.63,3.69-9.63,8.21s4.24,8.22,9.63,8.22a14.46,14.46,0,0,0,3.4-.56l3.1,1.7L28,23.24C30.3,21.53,32,19.27,32,16.71ZM19.25,15.3a1.22,1.22,0,0,1-1.13-1.14A1.22,1.22,0,0,1,19.25,13a1.3,1.3,0,0,1,1.42,1.13A1.29,1.29,0,0,1,19.25,15.3Zm6.23,0a1.22,1.22,0,0,1-1.12-1.14A1.21,1.21,0,0,1,25.48,13a1.3,1.3,0,0,1,1.42,1.13A1.29,1.29,0,0,1,25.48,15.3Z"/></g></g></svg>