<svg id="图层_1" data-name="图层 1" xmlns="http://www.w3.org/2000/svg" viewBox="0 0 393.62 494.96"><defs><style>.cls-1{fill:#333303;}</style></defs><title>mima</title><path class="cls-1" d="M369.2,185.34H162.74V88.87a39.59,39.59,0,0,1,39.54-39.54h94.56a39.59,39.59,0,0,1,39.54,39.54v41.51a23.13,23.13,0,0,0,46.27,0V88.87A85.94,85.94,0,0,0,296.78,3h-94.5a85.94,85.94,0,0,0-85.87,85.87v97.75a77.27,77.27,0,0,0-63.66,76V420.79A77.25,77.25,0,0,0,129.92,498H369.2a77.25,77.25,0,0,0,77.17-77.17V262.57a77.3,77.3,0,0,0-77.17-77.23ZM129.92,231.67H369.2a30.92,30.92,0,0,1,30.9,30.84v56.24a24.52,24.52,0,0,0-2.9-.29H99v-56a30.92,30.92,0,0,1,30.9-30.84Zm239.28,220H129.92a30.88,30.88,0,0,1-30.84-30.9V364.78H397.2a24.52,24.52,0,0,0,2.9-.29v56.24a30.89,30.89,0,0,1-30.9,30.9Zm0,0" transform="translate(-52.75 -3)"/></svg>