<svg xmlns="http://www.w3.org/2000/svg" viewBox="0 0 23 23"><defs><style>.cls-1{fill:none;stroke:#484848;stroke-linecap:round;stroke-linejoin:round;stroke-width:2px;}</style></defs><title>icon (4)</title><g id="图层_2" data-name="图层 2"><g id="图层_1-2" data-name="图层 1"><g id="icon"><path id="Shape" class="cls-1" d="M5.51,2.89A5.94,5.94,0,0,1,7.19,4.78c.42.63,1.37,2.63.53,3.78s-3.78,1.68-3.78,2.83c0,.84,1.26,1.89,1.89,2.84a3.51,3.51,0,0,1,0,3.78,3.4,3.4,0,0,1-1.26,1.15"/><path id="Shape-2" data-name="Shape" class="cls-1" d="M19.69,5a17.84,17.84,0,0,1-5.36,1.68c-.94.1-1.15-.74-1.89-1.89-.52-.84-1.89-2-1.89-2.83A2.51,2.51,0,0,1,10.66,1"/><circle id="Oval" class="cls-1" cx="11.5" cy="11.5" r="10.5"/><path id="Shape-3" data-name="Shape" class="cls-1" d="M18.22,12.34c0,2.94-3.78,6.61-5.78,5.77-1.68-.62-.52-2-.94-5.77-.21-1.57,1.57-2.83,3.36-2.83A3.17,3.17,0,0,1,18.22,12.34Z"/></g></g></g></svg>
