<svg xmlns="http://www.w3.org/2000/svg" viewBox="0 0 20.7 24"><defs><style>.cls-1{fill:none;stroke:#484848;stroke-linecap:round;stroke-linejoin:round;stroke-width:2px;}</style></defs><title>icon</title><g id="图层_2" data-name="图层 2"><g id="图层_1-2" data-name="图层 1"><g id="icon"><polyline id="Shape" class="cls-1" points="12 1 12 9.8 8.7 7.6 5.4 9.8 5.4 1"/><path id="Shape-2" data-name="Shape" class="cls-1" d="M3.2,1A2.08,2.08,0,0,0,1,3.2V20.8a2.36,2.36,0,0,1,2.2-2.2H17.5c1.32.22,2.2-.66,2.2-2.2V3.2A2.08,2.08,0,0,0,17.5,1Z"/><path id="Shape-3" data-name="Shape" class="cls-1" d="M17.5,23a2.14,2.14,0,0,0,2.2-2.2V16.4a2.14,2.14,0,0,1-2.2,2.2H3.2a2.2,2.2,0,1,0,0,4.4Z"/></g></g></g></svg>
