<svg xmlns="http://www.w3.org/2000/svg" viewBox="0 0 24 24"><defs><style>.cls-1,.cls-2{fill:none;}.cls-2{stroke:#484848;stroke-linecap:round;stroke-linejoin:round;stroke-width:2px;}</style></defs><title>资源 1</title><g id="图层_2" data-name="图层 2"><g id="图层_1-2" data-name="图层 1"><g id="Phone"><rect id="Rectangle" class="cls-1" width="24" height="24"/><g id="phone-2" data-name="phone"><path id="Shape" class="cls-2" d="M20.2,15.9v2.4a1.66,1.66,0,0,1-.5,1.2,1.37,1.37,0,0,1-1.2.4,16,16,0,0,1-7-2.5A16,16,0,0,1,4.1,5.7a1.75,1.75,0,0,1,.4-1.2A1.66,1.66,0,0,1,5.7,4H8.1A1.62,1.62,0,0,1,9.7,5.4a7.94,7.94,0,0,0,.6,2.2,1.57,1.57,0,0,1-.4,1.7l-1,1a12.56,12.56,0,0,0,4.9,4.8l1-1a1.73,1.73,0,0,1,1.7-.4,8.65,8.65,0,0,0,2.3.6A1.62,1.62,0,0,1,20.2,15.9Z"/></g></g></g></g></svg>