<svg xmlns="http://www.w3.org/2000/svg" viewBox="0 0 24 24"><defs><style>.cls-1,.cls-2{fill:none;}.cls-2{stroke:#484848;stroke-linecap:round;stroke-linejoin:round;stroke-width:2px;}</style></defs><title>资源 12</title><g id="图层_2" data-name="图层 2"><g id="图层_1-2" data-name="图层 1"><g id="Phone"><rect id="Rectangle" class="cls-1" width="24" height="24"/><g id="phone-2" data-name="phone"><path id="Shape" class="cls-2" d="M20.19,15.94v2.4a1.59,1.59,0,0,1-.52,1.19,1.63,1.63,0,0,1-1.24.41,16.14,16.14,0,0,1-7-2.46,15.69,15.69,0,0,1-4.86-4.8A15.71,15.71,0,0,1,4.1,5.74a1.59,1.59,0,0,1,.42-1.22A1.63,1.63,0,0,1,5.71,4H8.14A1.61,1.61,0,0,1,9.76,5.38a10.17,10.17,0,0,0,.57,2.25A1.59,1.59,0,0,1,10,9.31l-1,1a12.88,12.88,0,0,0,4.86,4.8l1-1a1.63,1.63,0,0,1,1.71-.36,10.5,10.5,0,0,0,2.27.56A1.61,1.61,0,0,1,20.19,15.94Z"/></g></g></g></g></svg>