<svg xmlns="http://www.w3.org/2000/svg" viewBox="0 0 24 24"><defs><style>.cls-1,.cls-2{fill:none;}.cls-2,.cls-3{stroke:#484848;stroke-width:2px;}.cls-3{fill:#fff;stroke-linecap:round;stroke-linejoin:round;}</style></defs><title>资源 1</title><g id="图层_2" data-name="图层 2"><g id="图层_1-2" data-name="图层 1"><g id="Wallet"><rect id="Rectangle-2" class="cls-1" width="24" height="24"/><g id="switches"><path id="Rectangle-3" class="cls-2" d="M4.5,8h15a.5.5,0,0,1,.5.5h0a.5.5,0,0,1-.5.5H4.5A.5.5,0,0,1,4,8.5H4A.5.5,0,0,1,4.5,8Z"/><circle id="Oval" class="cls-3" cx="18" cy="8" r="3"/><path id="Rectangle-3-Copy" class="cls-2" d="M6.5,17h13a.5.5,0,0,1,.5.5h0a.5.5,0,0,1-.5.5H6.5a.5.5,0,0,1-.5-.5H6A.5.5,0,0,1,6.5,17Z"/><circle id="Oval-Copy" class="cls-3" cx="7" cy="17" r="3"/></g></g></g></g></svg>