<svg xmlns="http://www.w3.org/2000/svg" viewBox="0 0 29 24"><defs><style>.cls-1,.cls-2{fill:none;stroke-linecap:round;stroke-linejoin:round;}.cls-1{stroke:#777;}.cls-2{stroke:#00b3e5;}</style></defs><title>资源 8</title><g id="图层_2" data-name="图层 2"><g id="图层_1-2" data-name="图层 1"><path id="Stroke-1" class="cls-1" d="M24.6,3.5h1.9a2,2,0,0,1,2,2v16a2,2,0,0,1-2,2H2.5a2,2,0,0,1-2-2V5.5a2,2,0,0,1,2-2H20.22"/><polygon id="Stroke-7" class="cls-2" points="25.5 2.7 20.55 7.65 16.7 11.5 14.5 11.5 14.5 9.3 18.35 5.45 23.3 0.5 24.4 1.6 25.5 2.7"/><path id="Stroke-9" class="cls-1" d="M12.5,12.5c-1.4.27-2.36,1.4-1.76,2.66.28.59.86.94,1.25,1.47a1.87,1.87,0,0,1,.42,1.22c-.12,1.67-2.53,1.78-3.9,1.58"/></g></g></svg>