<svg xmlns="http://www.w3.org/2000/svg" viewBox="0 0 28 28"><defs><style>.cls-1,.cls-2{fill:none;stroke-linecap:round;stroke-linejoin:round;}.cls-1{stroke:#777;}.cls-2{stroke:#01b4e6;}.cls-3{fill:#00b3e5;}.cls-4{fill:#777;}</style></defs><title>资源 6</title><g id="图层_2" data-name="图层 2"><g id="图层_1-2" data-name="图层 1"><path id="Stroke-1" class="cls-1" d="M27.5,26.6a.9.9,0,0,1-.9.9H1.4a.9.9,0,0,1-.9-.9V1.4A.9.9,0,0,1,1.4.5H26.6a.9.9,0,0,1,.9.9Z"/><path id="Stroke-3" class="cls-2" d="M22.5,14A8.5,8.5,0,1,0,14,22.5,8.5,8.5,0,0,0,22.5,14Z"/><path id="Fill-5" class="cls-3" d="M16.5,14A2.5,2.5,0,1,0,14,16.5,2.5,2.5,0,0,0,16.5,14"/><polygon id="Fill-7" class="cls-4" points="22.5 5.5 24.5 5.5 24.5 3.5 22.5 3.5 22.5 5.5"/><polygon id="Fill-9" class="cls-4" points="3.5 5.5 5.5 5.5 5.5 3.5 3.5 3.5 3.5 5.5"/><polygon id="Fill-10" class="cls-4" points="22.5 24.5 24.5 24.5 24.5 22.5 22.5 22.5 22.5 24.5"/><polygon id="Fill-11" class="cls-4" points="3.5 24.5 5.5 24.5 5.5 22.5 3.5 22.5 3.5 24.5"/></g></g></svg>