<svg xmlns="http://www.w3.org/2000/svg" viewBox="0 0 29 27"><defs><style>.cls-1,.cls-2{fill:none;stroke-linecap:round;stroke-linejoin:round;}.cls-1{stroke:#777;}.cls-2{stroke:#01b4e6;}.cls-3{fill:#00b3e5;}</style></defs><title>资源 4</title><g id="图层_2" data-name="图层 2"><g id="图层_1-2" data-name="图层 1"><path id="Stroke-1" class="cls-1" d="M2.5,18.5V1.5a1,1,0,0,1,.92-1H25.58a1,1,0,0,1,.92,1V4.36"/><path id="Stroke-3" class="cls-1" d="M.5,18.5h14"/><path id="Stroke-5" class="cls-1" d="M14.5,22.5h-13a1,1,0,0,1-1-1v-3"/><path id="Stroke-7" class="cls-2" d="M28.5,24.4a2.14,2.14,0,0,1-2.16,2.1H20.65a2.14,2.14,0,0,1-2.15-2.1V10.6a2.13,2.13,0,0,1,2.15-2.1h5.69a2.14,2.14,0,0,1,2.16,2.1Z"/><circle id="Oval-2" class="cls-3" cx="23.5" cy="22.5" r="1"/></g></g></svg>